<?xml version="1.0" encoding="UTF-8"?>
<svg version="1.1" xmlns="http://www.w3.org/2000/svg" width="100" height="100">
<path d="M0 0 C2.125 0.375 2.125 0.375 4 1 C3.67 3.64 3.34 6.28 3 9 C3.99 9 4.98 9 6 9 C5.67 7.02 5.34 5.04 5 3 C6.65 2.67 8.3 2.34 10 2 C10.625 3.8125 10.625 3.8125 11 6 C10.01 7.485 10.01 7.485 9 9 C9.61875 9.12375 10.2375 9.2475 10.875 9.375 C13 10 13 10 15 12 C17.57061311 12.64767793 17.57061311 12.64767793 20 13 C20 13.66 20 14.32 20 15 C20.61875 15.2475 21.2375 15.495 21.875 15.75 C24.47701074 17.28059456 24.91029654 18.20941158 26 21 C26.363384 24.07637592 26.5033047 27.12933752 26.65625 30.22265625 C26.81508818 33.2082876 26.81508818 33.2082876 29 36 C28.625 38.1875 28.625 38.1875 28 40 C26.68 40 25.36 40 24 40 C23.814375 41.918125 23.814375 41.918125 23.625 43.875 C23.25 47.75 23.25 47.75 21 50 C18.8359375 50.1953125 18.8359375 50.1953125 16.375 50.125 C15.55773438 50.10695312 14.74046875 50.08890625 13.8984375 50.0703125 C13.27195313 50.04710937 12.64546875 50.02390625 12 50 C11.87625 50.78375 11.7525 51.5675 11.625 52.375 C11 55 11 55 9 57 C2.73583234 57.65938607 -2.81240977 56.80875361 -8 53 C-9.87894365 47.78071208 -9.0923421 41.43321462 -8 36 C-7.34 35.01 -6.68 34.02 -6 33 C-6.9590625 32.8453125 -6.9590625 32.8453125 -7.9375 32.6875 C-8.9584375 32.3471875 -8.9584375 32.3471875 -10 32 C-10.33 31.01 -10.66 30.02 -11 29 C-12.98 29.33 -14.96 29.66 -17 30 C-17.12375 29.278125 -17.2475 28.55625 -17.375 27.8125 C-17.90625 24.96875 -17.90625 24.96875 -19.1875 22.375 C-19.5896875 21.199375 -19.5896875 21.199375 -20 20 C-19.01 18.515 -19.01 18.515 -18 17 C-17.61500109 15.34450469 -17.27206865 13.6777567 -17 12 C-14.03 12.495 -14.03 12.495 -11 13 C-10.34 11.68 -9.68 10.36 -9 9 C-8.01 9 -7.02 9 -6 9 C-6 8.34 -6 7.68 -6 7 C-6.66 7 -7.32 7 -8 7 C-7.67 5.35 -7.34 3.7 -7 2 C-6.21625 2.04125 -5.4325 2.0825 -4.625 2.125 C-1.83883881 2.28728734 -1.83883881 2.28728734 0 0 Z M-2 4 C-2.33 5.65 -2.66 7.3 -3 9 C-2.01 9 -1.02 9 0 9 C-0.33 7.35 -0.66 5.7 -1 4 C-1.33 4 -1.66 4 -2 4 Z M-8 12 C-7.34 12.66 -6.68 13.32 -6 14 C-6 13.34 -6 12.68 -6 12 C-6.66 12 -7.32 12 -8 12 Z M-3 12 C-3 12.66 -3 13.32 -3 14 C-2.34 14 -1.68 14 -1 14 C-1 13.34 -1 12.68 -1 12 C-1.66 12 -2.32 12 -3 12 Z M3 12 C3.33 12.66 3.66 13.32 4 14 C4.66 14 5.32 14 6 14 C6 13.34 6 12.68 6 12 C5.01 12 4.02 12 3 12 Z M9 12 C9.33 12.66 9.66 13.32 10 14 C10.33 13.34 10.66 12.68 11 12 C10.34 12 9.68 12 9 12 Z M-13 16 C-13.99 17.485 -13.99 17.485 -15 19 C-13.68 19.33 -12.36 19.66 -11 20 C-11 18.68 -11 17.36 -11 16 C-11.66 16 -12.32 16 -13 16 Z M-8 16 C-7.67 17.32 -7.34 18.64 -7 20 C-6.34 19.34 -5.68 18.68 -5 18 C-5.33 17.34 -5.66 16.68 -6 16 C-6.66 16 -7.32 16 -8 16 Z M9 16 C8.67 16.99 8.34 17.98 8 19 C8.99 19.33 9.98 19.66 11 20 C11 18.68 11 17.36 11 16 C10.34 16 9.68 16 9 16 Z M14 16 C14 17.32 14 18.64 14 20 C14.99 19.67 15.98 19.34 17 19 C16.01 18.01 15.02 17.02 14 16 Z M0 19 C0 20.32 0 21.64 0 23 C0.99 23 1.98 23 3 23 C3 21.68 3 20.36 3 19 C2.01 19 1.02 19 0 19 Z M-14 22 C-14 22.99 -14 23.98 -14 25 C-13.01 25.33 -12.02 25.66 -11 26 C-11.33 24.68 -11.66 23.36 -12 22 C-12.66 22 -13.32 22 -14 22 Z M-8 22 C-8 23.32 -8 24.64 -8 26 C-7.34 26 -6.68 26 -6 26 C-5.67 25.01 -5.34 24.02 -5 23 C-5.99 22.67 -6.98 22.34 -8 22 Z M14 22 C14.33 23.32 14.66 24.64 15 26 C15.66 25.01 16.32 24.02 17 23 C16.01 22.67 15.02 22.34 14 22 Z M19.375 23.5 C18.92125 23.995 18.4675 24.49 18 25 C18.66 25 19.32 25 20 25 C19.67 26.32 19.34 27.64 19 29 C18.21625 28.938125 17.4325 28.87625 16.625 28.8125 C15.325625 28.9053125 15.325625 28.9053125 14 29 C13.01 30.485 13.01 30.485 12 32 C11.01 32.33 10.02 32.66 9 33 C9.33 35.31 9.66 37.62 10 40 C8.68 40 7.36 40 6 40 C6 37.69 6 35.38 6 33 C5.01 33 4.02 33 3 33 C3.33 35.97 3.66 38.94 4 42 C3.34 42.33 2.68 42.66 2 43 C2.99 43 3.98 43 5 43 C5.33 43.99 5.66 44.98 6 46 C10.76307437 46.95261487 15.1666528 47.08333357 20 47 C20 46.01 20 45.02 20 44 C19.01 44 18.02 44 17 44 C17.33 43.34 17.66 42.68 18 42 C18.99 42 19.98 42 21 42 C21 40.68 21 39.36 21 38 C22.32 37.67 23.64 37.34 25 37 C24.67 36.01 24.34 35.02 24 34 C23.77674186 31.94106379 23.59294241 29.87766347 23.4375 27.8125 C23.31181641 26.18248047 23.31181641 26.18248047 23.18359375 24.51953125 C23.12300781 23.68808594 23.06242187 22.85664062 23 22 C20.87635519 21.77390663 20.87635519 21.77390663 19.375 23.5 Z M10 22 C9.01 22.495 9.01 22.495 8 23 C8.33 23.99 8.66 24.98 9 26 C9.66 26 10.32 26 11 26 C10.67 24.68 10.34 23.36 10 22 Z M-7 28 C-7.33 28.66 -7.66 29.32 -8 30 C-7.34 30 -6.68 30 -6 30 C-6.33 29.34 -6.66 28.68 -7 28 Z M-3 28 C-3 28.66 -3 29.32 -3 30 C-2.34 30 -1.68 30 -1 30 C-1 29.34 -1 28.68 -1 28 C-1.66 28 -2.32 28 -3 28 Z M4 28 C3.67 28.66 3.34 29.32 3 30 C3.99 30 4.98 30 6 30 C6 29.34 6 28.68 6 28 C5.34 28 4.68 28 4 28 Z M9 28 C9 28.66 9 29.32 9 30 C9.66 29.67 10.32 29.34 11 29 C10.34 28.67 9.68 28.34 9 28 Z M-3 33 C-2.67 34.98 -2.34 36.96 -2 39 C-1.34 38.34 -0.68 37.68 0 37 C0 35.68 0 34.36 0 33 C-0.99 33 -1.98 33 -3 33 Z M-5 41 C-5.46651207 43.12576782 -5.46651207 43.12576782 -5.625 45.5625 C-5.69976562 46.38878906 -5.77453125 47.21507812 -5.8515625 48.06640625 C-5.90054688 48.70449219 -5.94953125 49.34257813 -6 50 C-1.22642128 52.71391278 2.34388537 54.56561146 8 54 C8.33 52.35 8.66 50.7 9 49 C8.05125 48.773125 7.1025 48.54625 6.125 48.3125 C3 47 3 47 1.875 44.5 C1.58625 43.675 1.2975 42.85 1 42 C-1.85820158 39.94366462 -1.85820158 39.94366462 -5 41 Z " fill="#313447" transform="translate(44,23)"/>
</svg>
